<?xml version="1.0" encoding="UTF-8" standalone="no"?>
<svg
   xmlns:dc="http://purl.org/dc/elements/1.1/"
   xmlns:cc="http://creativecommons.org/ns#"
   xmlns:rdf="http://www.w3.org/1999/02/22-rdf-syntax-ns#"
   xmlns:svg="http://www.w3.org/2000/svg"
   xmlns="http://www.w3.org/2000/svg"
   viewBox="0 0 793.27997 1122.5601"
   height="1122.5601"
   width="793.27997"
   xml:space="preserve"
   id="svg2"
   version="1.1"><metadata
     id="metadata8"><rdf:RDF><cc:Work
         rdf:about=""><dc:format>image/svg+xml</dc:format><dc:type
           rdf:resource="http://purl.org/dc/dcmitype/StillImage" /></cc:Work></rdf:RDF></metadata><defs
     id="defs6"><clipPath
       id="clipPath18"
       clipPathUnits="userSpaceOnUse"><path
         style="clip-rule:evenodd"
         id="path16"
         d="M 120.833,120.833 H 2362.5 V 220.879 H 120.833 Z" /></clipPath><clipPath
       id="clipPath26"
       clipPathUnits="userSpaceOnUse"><path
         style="clip-rule:evenodd"
         id="path24"
         d="M 120.833,120.833 H 2362.5 v 3270.27 H 120.833 Z" /></clipPath><clipPath
       id="clipPath42"
       clipPathUnits="userSpaceOnUse"><path
         style="clip-rule:evenodd"
         id="path40"
         d="M 120.833,120.833 H 2362.5 v 3270.27 H 120.833 Z" /></clipPath><clipPath
       id="clipPath50"
       clipPathUnits="userSpaceOnUse"><path
         style="clip-rule:evenodd"
         id="path48"
         d="M 120.833,120.833 H 2362.5 v 3270.27 H 120.833 Z" /></clipPath><clipPath
       id="clipPath62"
       clipPathUnits="userSpaceOnUse"><path
         style="clip-rule:evenodd"
         id="path60"
         d="M 120.833,120.833 H 2362.5 v 3270.27 H 120.833 Z" /></clipPath><clipPath
       id="clipPath74"
       clipPathUnits="userSpaceOnUse"><path
         style="clip-rule:evenodd"
         id="path72"
         d="M 120.833,120.833 H 2362.5 v 3270.27 H 120.833 Z" /></clipPath><clipPath
       id="clipPath86"
       clipPathUnits="userSpaceOnUse"><path
         style="clip-rule:evenodd"
         id="path84"
         d="M 120.833,120.833 H 2362.5 v 3270.27 H 120.833 Z" /></clipPath><clipPath
       id="clipPath154"
       clipPathUnits="userSpaceOnUse"><path
         style="clip-rule:evenodd"
         id="path152"
         d="M 120.833,120.833 H 2362.5 v 3270.27 H 120.833 Z" /></clipPath><clipPath
       id="clipPath166"
       clipPathUnits="userSpaceOnUse"><path
         style="clip-rule:evenodd"
         id="path164"
         d="M 120.833,120.833 H 2362.5 v 3270.27 H 120.833 Z" /></clipPath><clipPath
       id="clipPath178"
       clipPathUnits="userSpaceOnUse"><path
         style="clip-rule:evenodd"
         id="path176"
         d="M 120.833,120.833 H 2362.5 v 3270.27 H 120.833 Z" /></clipPath><clipPath
       id="clipPath190"
       clipPathUnits="userSpaceOnUse"><path
         style="clip-rule:evenodd"
         id="path188"
         d="M 120.833,120.833 H 2362.5 v 3270.27 H 120.833 Z" /></clipPath><clipPath
       id="clipPath202"
       clipPathUnits="userSpaceOnUse"><path
         style="clip-rule:evenodd"
         id="path200"
         d="M 120.833,120.833 H 2362.5 v 3270.27 H 120.833 Z" /></clipPath><clipPath
       id="clipPath210"
       clipPathUnits="userSpaceOnUse"><path
         style="clip-rule:evenodd"
         id="path208"
         d="M 120.833,120.833 H 2362.5 v 3270.27 H 120.833 Z" /></clipPath><clipPath
       id="clipPath222"
       clipPathUnits="userSpaceOnUse"><path
         style="clip-rule:evenodd"
         id="path220"
         d="M 120.833,120.833 H 2362.5 v 3270.27 H 120.833 Z" /></clipPath><clipPath
       id="clipPath230"
       clipPathUnits="userSpaceOnUse"><path
         style="clip-rule:evenodd"
         id="path228"
         d="m 152.098,339.685 h 331.404 v 68.782 H 152.098 Z" /></clipPath><clipPath
       id="clipPath238"
       clipPathUnits="userSpaceOnUse"><path
         style="clip-rule:evenodd"
         id="path236"
         d="M 120.833,120.833 H 2362.5 v 3270.27 H 120.833 Z" /></clipPath></defs><g
     transform="matrix(1.3333333,0,0,-1.3333333,0,1122.56)"
     id="g10"><g
       transform="matrix(0.24,0,0,-0.24,0,841.91998)"
       id="g12"><g
         clip-path="url(#clipPath18)"
         id="g14" /></g><g
       transform="matrix(0.24,0,0,-0.24,0,841.91998)"
       id="g20"><g
         clip-path="url(#clipPath26)"
         id="g22"><g
           transform="matrix(3.1264527,0,0,3.1264527,2321.856,1462.0815)"
           id="g28"><path
             id="path30"
             style="fill:#eeeeee;fill-opacity:1;fill-rule:nonzero;stroke:none"
             d="M 0,0 V 1 H 1 V -1" /><g
             transform="translate(-704,-1)"
             id="g32"><path
               id="path34"
               style="fill:#9a9a9a;fill-opacity:1;fill-rule:nonzero;stroke:none"
               d="M 0,0 V 2 L 1,1 V 0" /></g></g></g></g><g
       transform="matrix(0.24,0,0,-0.24,0,841.91998)"
       id="g36"><g
         clip-path="url(#clipPath42)"
         id="g38" /></g><g
       transform="matrix(0.2400055,0,0,-0.2400055,13.610809,1283.2988)"
       id="g44"><g
         clip-path="url(#clipPath50)"
         id="g46"><g
           transform="matrix(3.1263907,0,0,3.1263907,120.83057,120.83057)"
           id="g52"><path
             id="path54"
             style="fill:#9a9a9a;fill-opacity:1;fill-rule:nonzero;stroke:none"
             d="m 0,613 h 705 v 1 H 0 Z" /></g></g></g><g
       transform="matrix(0.2400055,0,0,-0.2400055,13.610809,1283.2988)"
       id="g56"><g
         clip-path="url(#clipPath62)"
         id="g58"><g
           transform="matrix(3.1263907,0,0,3.1263907,2321.8029,2040.4286)"
           id="g64"><path
             id="path66"
             style="fill:#eeeeee;fill-opacity:1;fill-rule:nonzero;stroke:none"
             d="M 0,0 V 1 H 1 V -1" /></g></g></g><g
       transform="matrix(0.2400055,0,0,-0.2400055,13.610809,1283.2988)"
       id="g68"><g
         clip-path="url(#clipPath74)"
         id="g70"><g
           transform="matrix(3.1263907,0,0,3.1263907,120.83057,2037.3022)"
           id="g76"><path
             id="path78"
             style="fill:#9a9a9a;fill-opacity:1;fill-rule:nonzero;stroke:none"
             d="M 0,0 V 2 L 1,1 V 0" /></g></g></g><g
       transform="matrix(0.24,0,0,-0.24,0,841.91998)"
       id="g80"><g
         clip-path="url(#clipPath86)"
         id="g82"><g
           transform="matrix(4.1666667,0,0,-4.1666667,0,3507.9999)"
           id="g88"><text
             id="text92"
             style="font-variant:normal;font-weight:bold;font-size:10.99939823px;font-family:Calibri;-inkscape-font-specification:Calibri-Bold;writing-mode:lr-tb;fill:#000000;fill-opacity:1;fill-rule:nonzero;stroke:none"
             transform="matrix(1,0,0,-1,42.6108,775.5764)"><tspan
               id="tspan90"
               y="0"
               x="0 5.048552 8.8292952 14.742546 23.690298">From:</tspan></text>
<text
             id="text96"
             style="font-variant:normal;font-weight:normal;font-size:10.99939823px;font-family:Calibri;-inkscape-font-specification:Calibri;writing-mode:lr-tb;fill:#000000;fill-opacity:1;fill-rule:nonzero;stroke:none"
             transform="matrix(1,0,0,-1,71.822281,775.5764)"><tspan
               id="tspan94"
               y="0"
               x="0 4.6242585 9.893013 15.671994 19.357658 24.830503 30.099258 35.878239 41.657219 47.457684 51.759693 54.28397 56.770649 62.345539 65.122246 70.697136 73.183815 78.662033 84.44101 90.241478 93.927216 99.400063 105.17905 107.70332 112.43633 115.80382 118.32809 123.59685 129.37582 133.06142 138.53426 143.80301 149.582 155.36098 161.16144 165.46346 167.98773 177.82166 183.60065 186.12492 188.6492 191.4259 197.20488 202.98386 205.50813 211.28711 213.81139 216.58809 219.11237 222.79674">Laureandosi 2.0 &lt;noreply-laureandosi@dii.unipi.it&gt;</tspan></text>
<text
             id="text100"
             style="font-variant:normal;font-weight:bold;font-size:10.99939823px;font-family:Calibri;-inkscape-font-specification:Calibri-Bold;writing-mode:lr-tb;fill:#000000;fill-opacity:1;fill-rule:nonzero;stroke:none"
             transform="matrix(1,0,0,-1,42.6108,762.0701)"><tspan
               id="tspan98"
               y="0"
               x="0 5.1989341 10.736229 16.532495 20.345762">Sent:</tspan></text>
<text
             id="text104"
             style="font-variant:normal;font-weight:normal;font-size:10.99939823px;font-family:Calibri;-inkscape-font-specification:Calibri;writing-mode:lr-tb;fill:#000000;fill-opacity:1;fill-rule:nonzero;stroke:none"
             transform="matrix(1,0,0,-1,68.473827,762.0701)"><tspan
               id="tspan102"
               y="0"
               x="0 5.3600583 11.139039 16.91802 20.560764 24.862776 30.641756 35.706429 39.896965 42.641445 45.128124 50.182045 55.654892 61.389832 64.955582 70.428429 79.215057 84.994034 90.466881 94.301628 96.788315 102.3632 107.9381 110.68257 113.16925 118.74414 124.31903 129.89392 135.46881 137.95549 143.53038 146.47359 152.04848 157.62337 160.56656 166.14145 171.71634 174.20302 179.88533">Thursday, September 29, 2022 4:50:15 PM</tspan></text>
<text
             id="text108"
             style="font-variant:normal;font-weight:bold;font-size:10.99939823px;font-family:Calibri;-inkscape-font-specification:Calibri-Bold;writing-mode:lr-tb;fill:#000000;fill-opacity:1;fill-rule:nonzero;stroke:none"
             transform="matrix(1,0,0,-1,42.6108,748.5638)"><tspan
               id="tspan106"
               y="0"
               x="0 4.4966331 10.409883">To:</tspan></text>
<text
             id="text112"
             style="font-variant:normal;font-weight:normal;font-size:10.99939823px;font-family:Calibri;-inkscape-font-specification:Calibri;writing-mode:lr-tb;fill:#000000;fill-opacity:1;fill-rule:nonzero;stroke:none"
             transform="matrix(1,0,0,-1,58.53338,748.5638)"><tspan
               id="tspan110"
               y="0"
               x="0 9.4042702 14.673025 18.342566 22.900711 28.701174 31.187855 36.629395 41.898151 45.551476 51.35194 53.876217 59.14497 61.631653 67.109871 75.8965 78.673203 84.452179 89.720932 93.374413 99.174881 101.69916 106.96791 116.80184 120.98155 124.66592 130.4449 136.22388 141.69673 147.39024 153.51833 156.29503 162.07402 167.853 170.37727 176.15625 178.68053 181.45723 183.98151 187.66588">Marco Parola &lt;m.parola@studen.unipi.it&gt;</tspan></text>
<text
             id="text116"
             style="font-variant:normal;font-weight:bold;font-size:10.99939823px;font-family:Calibri;-inkscape-font-specification:Calibri-Bold;writing-mode:lr-tb;fill:#000000;fill-opacity:1;fill-rule:nonzero;stroke:none"
             transform="matrix(1,0,0,-1,42.6108,735.0575)"><tspan
               id="tspan114"
               y="0"
               x="0 5.1989341 11.101443 17.003952 19.81288 25.350176 29.95295 33.76622">Subject:</tspan></text>
<text
             id="text120"
             style="font-variant:normal;font-weight:normal;font-size:10.99939823px;font-family:Calibri;-inkscape-font-specification:Calibri;writing-mode:lr-tb;fill:#000000;fill-opacity:1;fill-rule:nonzero;stroke:none"
             transform="matrix(1,0,0,-1,81.898201,735.0575)"><tspan
               id="tspan118"
               y="0"
               x="0 6.3643975 12.143378 17.922359 23.395205 25.919479 28.443756 34.244221 36.7309 42.50988 45.034157 47.520836 50.045113 55.313866 61.09285 64.778511 70.251358 75.520111 78.00679 80.531067 86.310051 88.79673 91.568062 97.347046 102.5245 105.3012 107.78788 113.14793 118.41444 123.39828 127.90233 131.26982 133.7565 136.28078 142.05975 147.83873 150.36301 154.9211 160.08788 163.66428 169.46474 173.2995 175.82378 178.31046 184.08943 189.56227 193.39703 195.88371 200.74583 206.5463 210.12277 215.92323 218.40991 224.18889 226.71317 229.19984 231.72412 236.99287 242.77187 246.45752 251.93037">Appello di laurea in Ing. TEST- indicatori per voto di laurea</tspan></text>
<text
             id="text124"
             style="font-variant:normal;font-weight:300;font-size:10.99939823px;font-family:SegoeUI;-inkscape-font-specification:SegoeUI-Semilight;writing-mode:lr-tb;fill:#333333;fill-opacity:1;fill-rule:nonzero;stroke:none"
             transform="matrix(1,0,0,-1,42.6108,708.045)"><tspan
               id="tspan122"
               y="0"
               x="0 7.4439287 13.09401 19.146902 22.643291 25.103119 27.562944 33.213024 36.226044 38.685871 44.196312 50.254574 53.835373 59.485455 64.995895 71.04879 77.364845 83.670166 87.827164 90.286995 95.797432 101.8557 105.43658 111.08665 116.5971 122.64999 128.96605 134.47649">Gentile laureando/laureanda,</tspan></text>
<text
             id="text130"
             style="font-variant:normal;font-weight:300;font-size:10.99939823px;font-family:SegoeUI;-inkscape-font-specification:SegoeUI-Semilight;writing-mode:lr-tb;fill:#333333;fill-opacity:1;fill-rule:nonzero;stroke:none"
             transform="matrix(1,0,0,-1,42.6108,693.038)"><tspan
               id="tspan126"
               y="0"
               x="0 6.9981523 9.4579782 11.917805 17.567886 23.883947 30.189266 33.202286 39.260548 45.313438 48.326458 54.637146 58.214943 64.520264 68.98877 75.299461 80.942863 84.439255 87.848312 94.153625 97.166649 102.14538 108.4507 114.50359 117.91257 123.56265 129.61554 135.26562 141.31851 144.72749 150.37758 152.78906 155.80208 158.2619 163.77235 166.78537 171.25388 177.31213 182.82257 185.83559 190.81433 196.32477 200.05209 203.77943 206.23926 211.88934 215.61668 221.12712 223.5386 226.55162 232.86769 235.32751 237.78734 240.80035 243.26018 249.31308 255.62914 258.08896 263.06769 268.57812 271.98712 278.29242 282.01978 284.47958 287.49261 293.1427 296.1557 298.61554 304.12598 307.13901 310.37759 316.68292 320.38736 329.64127 335.69952 338.15933 343.66977 346.6828 351.66153 357.71442 363.3645 366.37753 368.83734 374.34778 377.36081 382.33954 388.64487 397.89874 407.15265 409.61246 414.08096 418.54947 421.00931 427.31461 433.36752 439.01758 442.03061 447.54105 453.85712 460.16245 466.47311 472.11652 475.69742 481.34747 485.07483 490.58527 493.59827 499.90897 505.55246">Allego un prospetto contenente: la sua carriera, gli indicatori e la formula che la commissione adopererà per</tspan><tspan
               id="tspan128"
               y="15.006"
               x="0 6.3160605 11.966142 15.37512 21.025202 24.729658 33.983547 36.443371 42.496265 48.006706 51.587505 57.237587 60.250607 62.71043 65.170258 68.183273 73.240616 79.545937 82.954994 89.260307 92.273331 98.589386 101.04922 104.06223 106.52206 112.0325 118.09077 121.67156 127.32165 132.83209">determinare il voto di laurea.</tspan></text>
<text
             id="text134"
             style="font-variant:normal;font-weight:300;font-size:10.99939823px;font-family:SegoeUI;-inkscape-font-specification:SegoeUI-Semilight;writing-mode:lr-tb;fill:#333333;fill-opacity:1;fill-rule:nonzero;stroke:none"
             transform="matrix(1,0,0,-1,42.6108,663.0241)"><tspan
               id="tspan132"
               y="0"
               x="0 5.1076307 10.618072 13.63109 19.94178 23.519577 29.169659 35.485722 41.791039 44.804058 51.120117 53.579945 56.592964 62.903652 66.481529 72.131607 78.184502 84.500565 90.150642 93.731522 99.381599 102.39462 107.51836 109.97819 114.44669 116.90652 123.21184 129.26474 134.91481 137.92783 144.2439 149.89398 152.35381 155.36682 161.68288 167.19331 170.68971 173.14954 176.16255 179.74344 185.39351 187.85335 193.36378 196.86017 199.32001 204.44374 206.90356 209.91658 215.42703 221.74309 224.20291 226.66273 229.67577 235.32584 239.79434 245.30479 254.55867 257.01849">La prego di prendere visione dei dati relativi agli esami.</tspan></text>
<text
             id="text138"
             style="font-variant:normal;font-weight:300;font-size:10.99939823px;font-family:SegoeUI;-inkscape-font-specification:SegoeUI-Semilight;writing-mode:lr-tb;fill:#333333;fill-opacity:1;fill-rule:nonzero;stroke:none"
             transform="matrix(1,0,0,-1,42.6108,648.0171)"><tspan
               id="tspan136"
               y="0"
               x="0 2.7176247 8.7705164 11.783535 16.762266 22.272707 26.741213 33.046532 36.059551 42.37561 44.835438 47.848454 54.164516 60.222778 66.53347 72.844154 75.29393 78.306946 82.775452 87.754189 91.481522 93.941345 98.998611 104.64869 108.22949 113.87958 116.89259 122.40303 124.81452 127.82754 132.95128 135.41112 138.9075 142.31656 148.62187 152.34921 154.80904 160.31947 162.73097 169.04703 174.55746 178.05386 181.55025 184.01007 186.46989 192.77522 203.21605 209.27432 215.32721 217.78703 224.09772 226.55043 228.96191 231.42174">In caso di dubbi scrivere a: vittoria.dattilo@unipi.it</tspan></text>
<text
             id="text142"
             style="font-variant:normal;font-weight:300;font-size:10.99939823px;font-family:SegoeUI;-inkscape-font-specification:SegoeUI-Semilight;writing-mode:lr-tb;fill:#333333;fill-opacity:1;fill-rule:nonzero;stroke:none"
             transform="matrix(1,0,0,-1,42.6108,618.0032)"><tspan
               id="tspan140"
               y="0"
               x="0 6.9981523 9.4579782 14.436709 20.494972 26.547863 32.197945 35.210964 39.67947 45.990158 48.442936 54.093018 60.409077 65.919518 70.957329 73.417152 79.722473 85.77536 88.235191">Alcune spiegazioni:</tspan></text>
</g></g></g><text
       id="text146"
       style="font-variant:normal;font-weight:300;font-size:10.99939823px;font-family:SegoeUI;-inkscape-font-specification:SegoeUI-Semilight;writing-mode:lr-tb;fill:#333333;fill-opacity:1;fill-rule:nonzero;stroke:none"
       transform="matrix(1,0,0,-1,42.6108,602.9962)"><tspan
         id="tspan144"
         y="0"
         x="0 7.4000955 13.716156 16.175982 18.635809 21.648827 27.298908 31.767414 37.277855 46.531742 48.99157 52.004589 56.983318 63.036209 68.686295 71.69931 77.752205 84.057518 90.110413 93.123428 99.176323 104.68676 110.73965 116.79255 123.09786 126.11089 132.16914 138.22203 141.23506 146.29239 152.59772 156.00677 162.31209 165.3251 167.78493 173.83783 176.85085 180.34723 183.92804 189.57811 195.63101 199.04007 204.69014 209.15865 211.61848 220.87236 223.33218 225.74368 228.7567 234.80959 240.32004 246.37292 252.42581 258.73114 261.74414 266.80142 273.10672 276.51572 282.82104 285.83405 291.88693 298.19226 307.44614 309.90598 315.95886 321.4693 323.92914 329.57922 332.59222 337.63004 343.28012 346.86084 353.16617 356.1792 361.68964 364.14944 367.16248 373.47318 379.77847 384.24698 387.65604 393.96136 396.97437 403.29044 405.75027 408.76328 415.07935 417.53918 423.59744 429.91348 432.37332 437.41113 439.87097 446.17627 449.1893 455.4946 458.50763 460.96747 467.28351 473.58884 479.64172 485.29181 487.75165 491.24802 496.75845 499.19681 501.60831 504.62131 507.08115">-gli esami che non hanno un voto in trentesimi, hanno voto nominale zero al posto di giudizio o idoneita', in</tspan></text>
<g
       transform="matrix(0.24,0,0,-0.24,0,841.91998)"
       id="g148"><g
         clip-path="url(#clipPath154)"
         id="g150" /></g><text
       id="text158"
       style="font-variant:normal;font-weight:300;font-size:10.99939823px;font-family:SegoeUI;-inkscape-font-specification:SegoeUI-Semilight;writing-mode:lr-tb;fill:#333333;fill-opacity:1;fill-rule:nonzero;stroke:none"
       transform="matrix(1,0,0,-1,42.6108,587.9902)"><tspan
         id="tspan156"
         y="0"
         x="0 6.3160605 12.374323 17.884764 23.937654 27.346634 33.651951 36.66497 42.717861 49.023182 55.076073 58.089092 63.067822 69.373138 75.426033 78.922424 82.649757 85.109589 91.420273 97.478539 99.938362 104.40687 109.3856 115.69092 121.74381 128.04913 131.06215 136.57259 139.03241 142.04544 147.02417 152.53461 154.99443 159.97316 166.27849 168.73831 175.04362 178.05664 184.37271 190.02278 192.48262 194.94244 200.45288 203.4659 212.71979 218.36987 224.68593 227.14575 232.6562 235.66922 244.92311 250.43355 253.44656 257.91507 264.2204 266.68021 272.98553 275.99857 281.509 283.96881 286.98184 293.03473 299.09299 308.34689 313.99695 317.57776 323.88309 326.89609 333.21216 335.672 338.685 343.66373 347.24454 352.89462 359.21069 361.6705 365.1669 367.62671 370.63974 375.61847 381.67673 385.40408 389.13141 391.59122 396.56998 402.62823 405.08804 410.59848 414.32584 416.78564">quanto non contribuiscono al calcolo della media ma solo al numero di crediti curriculari;</tspan></text>
<g
       transform="matrix(0.24,0,0,-0.24,0,841.91998)"
       id="g160"><g
         clip-path="url(#clipPath166)"
         id="g162" /></g><text
       id="text170"
       style="font-variant:normal;font-weight:300;font-size:10.99939823px;font-family:SegoeUI;-inkscape-font-specification:SegoeUI-Semilight;writing-mode:lr-tb;fill:#333333;fill-opacity:1;fill-rule:nonzero;stroke:none"
       transform="matrix(1,0,0,-1,42.6108,572.9822)"><tspan
         id="tspan168"
         y="0"
         x="0 7.4000955 13.716156 16.175982 18.635809 21.648827 27.298908 31.767414 37.277855 46.531742 48.99157 52.004589 56.983318 63.036209 68.686295 71.69931 77.752205 84.057518 90.110413 93.123428 96.362022 101.87247 107.92535 113.97825 120.28357 123.29659 132.55048 138.20056 144.51662 146.97644 152.48688 155.49989 158.71164 165.02232 171.0806 174.80792 177.82094 182.79968 189.105 195.15788 198.65428 202.38161 204.84143 211.15213 217.21039 222.86047 228.91336 235.22942 241.53474 244.54776 250.0582 252.51802 255.53105 260.50977 264.09058 269.74066 276.05673 278.51654 282.01294 284.47278 287.48578 292.46451 298.52277 302.25012 305.97745 308.43729 313.41602 319.47427 321.93408 327.44452 331.17188 333.63168 336.84344 339.85645 345.90933 352.21466 358.26755 361.28058 367.33347 372.8439 378.89679 384.94968 391.255 394.26804 396.72784 402.23828 405.25131 409.71982 416.03052 422.08878 428.14166 431.63806 437.1485 440.1615 446.21439 451.86447 454.32431 456.78415 462.29459 465.30759 470.28632 476.59164 479.05148 485.35678 491.40967 497.46259 502.97302 505.98602 515.50311 521.03503 528.59149">-gli esami che non fanno media (pur contribuendo ai crediti curriculari) non hanno la spunta nella colonna MED;</tspan></text>
<g
       transform="matrix(0.24,0,0,-0.24,0,841.91998)"
       id="g172"><g
         clip-path="url(#clipPath178)"
         id="g174" /></g><text
       id="text182"
       style="font-variant:normal;font-weight:300;font-size:10.99939823px;font-family:SegoeUI;-inkscape-font-specification:SegoeUI-Semilight;writing-mode:lr-tb;fill:#333333;fill-opacity:1;fill-rule:nonzero;stroke:none"
       transform="matrix(1,0,0,-1,42.6108,557.9753)"><tspan
         id="tspan180"
         y="0"
         x="0 7.4000955 9.8599215 12.319748 15.332767 20.389963 26.695282 30.104261 36.40958 39.4226 45.738659 48.198486 51.211506 54.62056 60.270641 64.739143 67.198975 70.21199 73.423729 79.116776 82.328514 85.341537 90.851974 97.162666 103.32232 108.83276 112.41364 118.06372 121.07674 127.12963 133.43495 142.68884 145.14867 151.20155 156.71199 159.17183 168.4257 174.07579 180.12868 183.53766 189.18774 192.20076 197.7112 200.72423 205.76204 211.41211 214.993 221.29831 224.31133 226.77115 232.82405 235.83707 242.15312 248.2114 253.72183 259.77472 263.18378 269.48911 272.50211 277.55945 283.20953 286.93686 290.66422 296.17465 298.61298 301.62601 307.94208 313.59216 317.00113 322.65121 326.3555 335.60941 338.06921 344.12213 349.63257 353.04163 359.34692 362.35995 364.81976 370.87268 373.88568 378.35419 384.00427 390.32034 395.97043 398.98343 405.2995 407.75931 410.77234 413.23218 418.74261 424.80087 428.38174 434.03183 439.54227 441.95377 444.96677 450.61685 453.62988 458.55283 464.06326 467.07629 473.39236 478.9028 481.9158 486.04059 491.83569 494.84869 500.35913 503.37216 509.16727 514.96234">-il voto di tesi (T) appare nominalmente a zero in quanto verra' determinato in sede di laurea, e va da 18 a 30.</tspan></text>
<g
       transform="matrix(0.24,0,0,-0.24,0,841.91998)"
       id="g184"><g
         clip-path="url(#clipPath190)"
         id="g186" /></g><text
       id="text194"
       style="font-variant:normal;font-weight:300;font-size:10.99939823px;font-family:SegoeUI;-inkscape-font-specification:SegoeUI-Semilight;writing-mode:lr-tb;fill:#333333;fill-opacity:1;fill-rule:nonzero;stroke:none"
       transform="matrix(1,0,0,-1,42.6108,527.9613)"><tspan
         id="tspan192"
         y="0"
         x="0 3.0130186 9.8339348 16.139254 19.719978 26.036037 28.495865 34.006306 36.466133 38.925957 41.938976 46.407482 51.917923 54.37775 60.436012 63.9324"> Cordiali saluti</tspan></text>
<g
       transform="matrix(0.24,0,0,-0.24,0,841.91998)"
       id="g196"><g
         clip-path="url(#clipPath202)"
         id="g198" /></g><g
       transform="matrix(0.24,0,0,-0.24,0,841.91998)"
       id="g204"><g
         clip-path="url(#clipPath210)"
         id="g206" /></g><text
       id="text214"
       style="font-variant:normal;font-weight:300;font-size:10.99939823px;font-family:SegoeUI;-inkscape-font-specification:SegoeUI-Semilight;writing-mode:lr-tb;fill:#333333;fill-opacity:1;fill-rule:nonzero;stroke:none"
       transform="matrix(1,0,0,-1,42.6108,512.9543)"><tspan
         id="tspan212"
         y="0"
         x="0 3.0130186 10.354902 16.407793 18.86762 22.36401 27.874451 30.88747 38.449554 40.909382 47.225441 52.735882 56.232273 59.728664 62.188492 67.167221 72.677666 75.690681 83.247139 85.96476"> Unità Didattica DII</tspan></text>
<g
       transform="matrix(0.24,0,0,-0.24,0,841.91998)"
       id="g216"><g
         clip-path="url(#clipPath222)"
         id="g218" /></g><g
       transform="matrix(0.24,0,0,-0.24,0,841.91998)"
       id="g224"><g
         clip-path="url(#clipPath230)"
         id="g226" /></g><g
       transform="matrix(0.24,0,0,-0.24,0,841.91998)"
       id="g232"><g
         clip-path="url(#clipPath238)"
         id="g234" /></g></g></svg>